%TF.GenerationSoftware,KiCad,Pcbnew,9.0.0*%
%TF.CreationDate,2025-11-24T23:48:52+00:00*%
%TF.ProjectId,wireless_weather,77697265-6c65-4737-935f-776561746865,rev?*%
%TF.SameCoordinates,Original*%
%TF.FileFunction,Profile,NP*%
%FSLAX46Y46*%
G04 Gerber Fmt 4.6, Leading zero omitted, Abs format (unit mm)*
G04 Created by KiCad (PCBNEW 9.0.0) date 2025-11-24 23:48:52*
%MOMM*%
%LPD*%
G01*
G04 APERTURE LIST*
%TA.AperFunction,Profile*%
%ADD10C,0.050000*%
%TD*%
G04 APERTURE END LIST*
D10*
X104050000Y-67525000D02*
G75*
G02*
X103875000Y-67700000I-175000J0D01*
G01*
X104050000Y-62775000D02*
X104050000Y-67525000D01*
X113409010Y-27550000D02*
X113409010Y-28591000D01*
X88575000Y-62500000D02*
X80300000Y-62500000D01*
X113409010Y-61700000D02*
G75*
G02*
X112609010Y-62500010I-800010J0D01*
G01*
X88575000Y-62500000D02*
G75*
G02*
X88850000Y-62775000I0J-275000D01*
G01*
X112609010Y-26750000D02*
X112075000Y-26750000D01*
X112609010Y-62500000D02*
X104325000Y-62500000D01*
X80300000Y-62500000D02*
G75*
G02*
X79500000Y-61700000I0J800000D01*
G01*
X88850000Y-62775000D02*
X88850000Y-67525000D01*
X79500000Y-27550000D02*
G75*
G02*
X80300000Y-26750000I800000J0D01*
G01*
X104050000Y-62775000D02*
G75*
G02*
X104325000Y-62500000I275000J0D01*
G01*
X81500000Y-26750000D02*
X112075000Y-26750000D01*
X81500000Y-26750000D02*
X80300000Y-26750000D01*
X89025000Y-67700000D02*
X103875000Y-67700000D01*
X79500000Y-27550000D02*
X79500000Y-28591000D01*
X89025000Y-67700000D02*
G75*
G02*
X88850000Y-67525000I0J175000D01*
G01*
X113409010Y-28591000D02*
X113409010Y-61700000D01*
X112609010Y-26750000D02*
G75*
G02*
X113409000Y-27550000I-10J-800000D01*
G01*
X79500000Y-28591000D02*
X79500000Y-61700000D01*
M02*
