%TF.GenerationSoftware,KiCad,Pcbnew,9.0.0*%
%TF.CreationDate,2025-11-24T23:48:52+00:00*%
%TF.ProjectId,wireless_weather,77697265-6c65-4737-935f-776561746865,rev?*%
%TF.SameCoordinates,Original*%
%TF.FileFunction,Copper,L4,Bot*%
%TF.FilePolarity,Positive*%
%FSLAX46Y46*%
G04 Gerber Fmt 4.6, Leading zero omitted, Abs format (unit mm)*
G04 Created by KiCad (PCBNEW 9.0.0) date 2025-11-24 23:48:52*
%MOMM*%
%LPD*%
G01*
G04 APERTURE LIST*
%TA.AperFunction,ComponentPad*%
%ADD10R,1.700000X1.700000*%
%TD*%
%TA.AperFunction,ComponentPad*%
%ADD11O,1.700000X1.700000*%
%TD*%
%TA.AperFunction,HeatsinkPad*%
%ADD12C,0.600000*%
%TD*%
%TA.AperFunction,HeatsinkPad*%
%ADD13R,2.500000X2.500000*%
%TD*%
%TA.AperFunction,HeatsinkPad*%
%ADD14O,1.000000X2.100000*%
%TD*%
%TA.AperFunction,HeatsinkPad*%
%ADD15O,1.000000X1.800000*%
%TD*%
%TA.AperFunction,ViaPad*%
%ADD16C,0.500000*%
%TD*%
%TA.AperFunction,ViaPad*%
%ADD17C,0.600000*%
%TD*%
%TA.AperFunction,Conductor*%
%ADD18C,0.200000*%
%TD*%
%TA.AperFunction,Conductor*%
%ADD19C,0.300000*%
%TD*%
%TA.AperFunction,Conductor*%
%ADD20C,0.500000*%
%TD*%
%TA.AperFunction,Conductor*%
%ADD21C,0.400000*%
%TD*%
G04 APERTURE END LIST*
D10*
%TO.P,J2,1,Pin_1*%
%TO.N,GND*%
X81500000Y-47685500D03*
D11*
%TO.P,J2,2,Pin_2*%
%TO.N,Net-(J2-Pin_2)*%
X81500000Y-45145500D03*
%TO.P,J2,3,Pin_3*%
%TO.N,Net-(J2-Pin_3)*%
X81500000Y-42605500D03*
%TO.P,J2,4,Pin_4*%
%TO.N,GND*%
X81500000Y-40065500D03*
%TO.P,J2,5,Pin_5*%
%TO.N,/VBUS_FILT*%
X81500000Y-37525500D03*
%TD*%
D12*
%TO.P,U1,33,GND*%
%TO.N,GND*%
X97750000Y-53750000D03*
X98750000Y-53750000D03*
X99750000Y-53750000D03*
X97750000Y-52750000D03*
X98750000Y-52750000D03*
D13*
X98750000Y-52750000D03*
D12*
X99750000Y-52750000D03*
X97750000Y-51750000D03*
X98750000Y-51750000D03*
X99750000Y-51750000D03*
%TD*%
D14*
%TO.P,J1,S1,SHIELD*%
%TO.N,unconnected-(J1-SHIELD-PadS1)_3*%
X100935000Y-33625000D03*
D15*
%TO.N,unconnected-(J1-SHIELD-PadS1)_2*%
X100935000Y-29445000D03*
D14*
%TO.N,unconnected-(J1-SHIELD-PadS1)_1*%
X92295000Y-33625000D03*
D15*
%TO.N,unconnected-(J1-SHIELD-PadS1)*%
X92295000Y-29445000D03*
%TD*%
D16*
%TO.N,GND*%
X89800000Y-62250000D03*
D17*
X92250000Y-53400000D03*
X99875000Y-35975000D03*
X108150000Y-40100000D03*
X84000000Y-40000000D03*
X93425000Y-36000000D03*
X104400000Y-27975000D03*
X90750000Y-30675000D03*
X110200000Y-60250000D03*
X99125000Y-58550000D03*
X111850000Y-31750000D03*
X88825000Y-28000000D03*
X104350000Y-50626000D03*
X90675000Y-47075000D03*
X83750000Y-47750000D03*
X110000000Y-52275000D03*
X99125000Y-57400000D03*
X96200000Y-58525000D03*
X100125000Y-39775000D03*
X101400000Y-44800000D03*
X94075000Y-38500000D03*
X110175000Y-57250000D03*
X87175000Y-54625000D03*
X110000000Y-51625000D03*
X95025000Y-55725000D03*
X102300000Y-49750000D03*
X88350000Y-55950000D03*
X105025000Y-41550000D03*
X96575000Y-44925000D03*
X95550000Y-56625000D03*
X96575000Y-43475000D03*
X100300000Y-57525000D03*
X84000000Y-39000000D03*
X103475000Y-35575000D03*
X102425000Y-40125000D03*
X101150000Y-39775000D03*
X102500000Y-30650000D03*
X103250000Y-54750000D03*
X112075000Y-27975000D03*
X81175000Y-28000000D03*
X88500000Y-31750000D03*
%TO.N,/MPU_EN*%
X85000000Y-36500000D03*
X104000000Y-60250000D03*
%TO.N,/INT_GYRO_GPIO9*%
X109250000Y-42000000D03*
X102250000Y-51400000D03*
%TO.N,+3.3V*%
X106750000Y-54750000D03*
X110250000Y-49250000D03*
X100500000Y-60000000D03*
X102239722Y-48389159D03*
X108250000Y-37500000D03*
X106250000Y-47500000D03*
X82360000Y-32750000D03*
X94250000Y-54250000D03*
X103450000Y-53750000D03*
X104325000Y-51875000D03*
X94000000Y-58500000D03*
%TO.N,VBUS*%
X98000000Y-36000000D03*
X94500000Y-35950000D03*
%TO.N,/VBUS_FILT*%
X89981985Y-42018015D03*
X88250000Y-37250000D03*
X102250000Y-37000000D03*
%TO.N,/FSPIQ*%
X103530331Y-59280331D03*
X109250000Y-47000000D03*
%TO.N,/FSPI_NCS_2*%
X103700000Y-51175000D03*
X107563500Y-50675000D03*
%TO.N,/SPI_NCS*%
X100000000Y-42500000D03*
X98600000Y-47900000D03*
%TO.N,/SPI_NWP*%
X99500000Y-48500000D03*
X96750000Y-42250000D03*
%TD*%
D18*
%TO.N,/MPU_EN*%
X102449000Y-61801000D02*
X94301000Y-61801000D01*
X104000000Y-60250000D02*
X102449000Y-61801000D01*
X87250000Y-58750000D02*
X85000000Y-56500000D01*
X94301000Y-61801000D02*
X91250000Y-58750000D01*
X91250000Y-58750000D02*
X87250000Y-58750000D01*
X85000000Y-56500000D02*
X85000000Y-36500000D01*
%TO.N,/INT_GYRO_GPIO9*%
X104250000Y-47000000D02*
X109250000Y-42000000D01*
X101638722Y-50788722D02*
X101638722Y-47861278D01*
X101638722Y-47861278D02*
X102500000Y-47000000D01*
X102250000Y-51400000D02*
X101638722Y-50788722D01*
X102500000Y-47000000D02*
X104250000Y-47000000D01*
D19*
%TO.N,+3.3V*%
X103150000Y-51900000D02*
X104300000Y-51900000D01*
D20*
X109250000Y-37250000D02*
X110250000Y-38250000D01*
X93750000Y-58750000D02*
X94000000Y-58500000D01*
D19*
X104300000Y-51900000D02*
X104325000Y-51875000D01*
D21*
X87250000Y-57750000D02*
X93250000Y-57750000D01*
X102239722Y-48389159D02*
X103639159Y-48389159D01*
X103750000Y-48500000D02*
X103000000Y-49250000D01*
D20*
X108500000Y-37250000D02*
X108250000Y-37500000D01*
D21*
X104750000Y-47500000D02*
X103750000Y-48500000D01*
D20*
X106250000Y-47500000D02*
X110250000Y-43500000D01*
X110250000Y-44500000D02*
X110250000Y-49250000D01*
D21*
X103000000Y-53300000D02*
X103450000Y-53750000D01*
X104000000Y-54750000D02*
X106750000Y-54750000D01*
D20*
X94000000Y-58500000D02*
X94000000Y-54500000D01*
X110250000Y-38250000D02*
X110250000Y-43500000D01*
D21*
X82360000Y-32860000D02*
X86000000Y-36500000D01*
X103639159Y-48389159D02*
X103750000Y-48500000D01*
D20*
X100500000Y-60000000D02*
X100500000Y-61250000D01*
X95000000Y-61250000D02*
X93750000Y-60000000D01*
D21*
X93250000Y-57750000D02*
X94000000Y-58500000D01*
D20*
X93750000Y-60000000D02*
X93750000Y-58750000D01*
D21*
X86000000Y-56500000D02*
X87250000Y-57750000D01*
X104000000Y-54300000D02*
X104000000Y-54750000D01*
D20*
X94000000Y-54500000D02*
X94250000Y-54250000D01*
X109250000Y-37250000D02*
X108500000Y-37250000D01*
D21*
X103450000Y-53750000D02*
X104000000Y-54300000D01*
X104000000Y-54750000D02*
X104000000Y-57750000D01*
X103000000Y-49250000D02*
X103000000Y-51750000D01*
D20*
X104000000Y-57750000D02*
X100500000Y-61250000D01*
D21*
X82360000Y-32750000D02*
X82360000Y-32860000D01*
X103000000Y-51750000D02*
X103000000Y-53300000D01*
X106250000Y-47500000D02*
X104750000Y-47500000D01*
D20*
X110250000Y-43500000D02*
X110250000Y-44500000D01*
D21*
X86000000Y-36500000D02*
X86000000Y-56500000D01*
D20*
X100500000Y-61250000D02*
X95000000Y-61250000D01*
D21*
%TO.N,VBUS*%
X97950000Y-35950000D02*
X98000000Y-36000000D01*
X94500000Y-35950000D02*
X97950000Y-35950000D01*
%TO.N,/VBUS_FILT*%
X100500000Y-35250000D02*
X90250000Y-35250000D01*
X89981985Y-39731985D02*
X89981985Y-42018015D01*
X102250000Y-37000000D02*
X100500000Y-35250000D01*
X88250000Y-38000000D02*
X89981985Y-39731985D01*
X88250000Y-37250000D02*
X88250000Y-38000000D01*
X90250000Y-35250000D02*
X88250000Y-37250000D01*
D18*
%TO.N,/FSPIQ*%
X103530331Y-59280331D02*
X109250000Y-53560662D01*
X109250000Y-53560662D02*
X109250000Y-47000000D01*
%TO.N,/FSPI_NCS_2*%
X103700000Y-51175000D02*
X103700000Y-50250000D01*
X104150000Y-49800000D02*
X106688500Y-49800000D01*
X103700000Y-50250000D02*
X104150000Y-49800000D01*
X106688500Y-49800000D02*
X107563500Y-50675000D01*
%TO.N,/SPI_NCS*%
X100250000Y-46250000D02*
X98600000Y-47900000D01*
X100000000Y-42500000D02*
X100250000Y-42750000D01*
X100250000Y-42750000D02*
X100250000Y-46250000D01*
%TO.N,/SPI_NWP*%
X98000000Y-48500000D02*
X99500000Y-48500000D01*
X96750000Y-42250000D02*
X95975000Y-43025000D01*
X95975000Y-46475000D02*
X98000000Y-48500000D01*
X95975000Y-43025000D02*
X95975000Y-46475000D01*
%TD*%
M02*
