%TF.GenerationSoftware,KiCad,Pcbnew,9.0.0*%
%TF.CreationDate,2025-11-24T23:48:52+00:00*%
%TF.ProjectId,wireless_weather,77697265-6c65-4737-935f-776561746865,rev?*%
%TF.SameCoordinates,Original*%
%TF.FileFunction,Soldermask,Top*%
%TF.FilePolarity,Negative*%
%FSLAX46Y46*%
G04 Gerber Fmt 4.6, Leading zero omitted, Abs format (unit mm)*
G04 Created by KiCad (PCBNEW 9.0.0) date 2025-11-24 23:48:52*
%MOMM*%
%LPD*%
G01*
G04 APERTURE LIST*
G04 Aperture macros list*
%AMRoundRect*
0 Rectangle with rounded corners*
0 $1 Rounding radius*
0 $2 $3 $4 $5 $6 $7 $8 $9 X,Y pos of 4 corners*
0 Add a 4 corners polygon primitive as box body*
4,1,4,$2,$3,$4,$5,$6,$7,$8,$9,$2,$3,0*
0 Add four circle primitives for the rounded corners*
1,1,$1+$1,$2,$3*
1,1,$1+$1,$4,$5*
1,1,$1+$1,$6,$7*
1,1,$1+$1,$8,$9*
0 Add four rect primitives between the rounded corners*
20,1,$1+$1,$2,$3,$4,$5,0*
20,1,$1+$1,$4,$5,$6,$7,0*
20,1,$1+$1,$6,$7,$8,$9,0*
20,1,$1+$1,$8,$9,$2,$3,0*%
G04 Aperture macros list end*
%ADD10R,0.800000X0.250000*%
%ADD11R,0.250000X0.800000*%
%ADD12R,1.200000X1.400000*%
%ADD13RoundRect,0.100000X-0.100000X0.130000X-0.100000X-0.130000X0.100000X-0.130000X0.100000X0.130000X0*%
%ADD14RoundRect,0.100000X-0.130000X-0.100000X0.130000X-0.100000X0.130000X0.100000X-0.130000X0.100000X0*%
%ADD15RoundRect,0.100000X0.100000X-0.130000X0.100000X0.130000X-0.100000X0.130000X-0.100000X-0.130000X0*%
%ADD16RoundRect,0.100000X0.130000X0.100000X-0.130000X0.100000X-0.130000X-0.100000X0.130000X-0.100000X0*%
%ADD17R,0.500000X0.500000*%
%ADD18R,0.900000X0.500000*%
%ADD19RoundRect,0.218750X0.218750X0.256250X-0.218750X0.256250X-0.218750X-0.256250X0.218750X-0.256250X0*%
%ADD20RoundRect,0.062500X-0.062500X0.387500X-0.062500X-0.387500X0.062500X-0.387500X0.062500X0.387500X0*%
%ADD21R,1.600000X0.200000*%
%ADD22RoundRect,0.140000X-0.170000X0.140000X-0.170000X-0.140000X0.170000X-0.140000X0.170000X0.140000X0*%
%ADD23RoundRect,0.150000X0.600000X0.350000X-0.600000X0.350000X-0.600000X-0.350000X0.600000X-0.350000X0*%
%ADD24R,1.700000X1.700000*%
%ADD25O,1.700000X1.700000*%
%ADD26RoundRect,0.150000X0.150000X-0.512500X0.150000X0.512500X-0.150000X0.512500X-0.150000X-0.512500X0*%
%ADD27RoundRect,0.062500X0.062500X-0.337500X0.062500X0.337500X-0.062500X0.337500X-0.062500X-0.337500X0*%
%ADD28RoundRect,0.062500X0.337500X-0.062500X0.337500X0.062500X-0.337500X0.062500X-0.337500X-0.062500X0*%
%ADD29R,3.700000X3.700000*%
%ADD30C,0.650000*%
%ADD31RoundRect,0.150000X0.150000X0.425000X-0.150000X0.425000X-0.150000X-0.425000X0.150000X-0.425000X0*%
%ADD32RoundRect,0.075000X0.075000X0.500000X-0.075000X0.500000X-0.075000X-0.500000X0.075000X-0.500000X0*%
%ADD33O,1.000000X2.100000*%
%ADD34O,1.000000X1.800000*%
%ADD35RoundRect,0.140000X0.170000X-0.140000X0.170000X0.140000X-0.170000X0.140000X-0.170000X-0.140000X0*%
%ADD36RoundRect,0.150000X-0.512500X-0.150000X0.512500X-0.150000X0.512500X0.150000X-0.512500X0.150000X0*%
%ADD37RoundRect,0.218750X-0.218750X-0.256250X0.218750X-0.256250X0.218750X0.256250X-0.218750X0.256250X0*%
G04 APERTURE END LIST*
D10*
%TO.C,U5*%
X108670000Y-49230000D03*
X108670000Y-49730000D03*
X108670000Y-50230000D03*
X108670000Y-50730000D03*
X108670000Y-51230000D03*
X108670000Y-51730000D03*
X108670000Y-52230000D03*
X106270000Y-52230000D03*
X106270000Y-51730000D03*
X106270000Y-51230000D03*
X106270000Y-50730000D03*
X106270000Y-50230000D03*
X106270000Y-49730000D03*
X106270000Y-49230000D03*
D11*
X107470000Y-52630000D03*
X107470000Y-48830000D03*
%TD*%
D12*
%TO.C,Y1*%
X90075000Y-54575000D03*
X90075000Y-52375000D03*
X88375000Y-52375000D03*
X88375000Y-54575000D03*
%TD*%
D13*
%TO.C,L3*%
X97000000Y-57600000D03*
X97000000Y-58240000D03*
%TD*%
D14*
%TO.C,L2*%
X100297500Y-37310000D03*
X100937500Y-37310000D03*
%TD*%
D15*
%TO.C,L1*%
X98375000Y-58265000D03*
X98375000Y-57625000D03*
%TD*%
D14*
%TO.C,R13*%
X106085000Y-53750000D03*
X106725000Y-53750000D03*
%TD*%
%TO.C,R12*%
X108775000Y-60250000D03*
X109415000Y-60250000D03*
%TD*%
%TO.C,R11*%
X108755000Y-57250000D03*
X109395000Y-57250000D03*
%TD*%
%TO.C,R10*%
X108180000Y-53750000D03*
X108820000Y-53750000D03*
%TD*%
D13*
%TO.C,R9*%
X105000000Y-48335000D03*
X105000000Y-48975000D03*
%TD*%
%TO.C,R8*%
X91650000Y-47760000D03*
X91650000Y-48400000D03*
%TD*%
%TO.C,R7*%
X89750000Y-47750000D03*
X89750000Y-48390000D03*
%TD*%
D14*
%TO.C,R6*%
X105750000Y-31750000D03*
X106390000Y-31750000D03*
%TD*%
D16*
%TO.C,R5*%
X104887500Y-35570000D03*
X104247500Y-35570000D03*
%TD*%
D15*
%TO.C,R4*%
X90750000Y-32070000D03*
X90750000Y-31430000D03*
%TD*%
%TO.C,R3*%
X102500000Y-32070000D03*
X102500000Y-31430000D03*
%TD*%
%TO.C,R2*%
X92875000Y-54900000D03*
X92875000Y-54260000D03*
%TD*%
D14*
%TO.C,R1*%
X82360000Y-31750000D03*
X83000000Y-31750000D03*
%TD*%
D13*
%TO.C,C23*%
X84000000Y-37525000D03*
X84000000Y-38165000D03*
%TD*%
D15*
%TO.C,C22*%
X105150000Y-51570000D03*
X105150000Y-50930000D03*
%TD*%
D13*
%TO.C,C21*%
X109975000Y-50185000D03*
X109975000Y-50825000D03*
%TD*%
D16*
%TO.C,C20*%
X97000000Y-59325000D03*
X96360000Y-59325000D03*
%TD*%
%TO.C,C19*%
X97000000Y-56625000D03*
X96360000Y-56625000D03*
%TD*%
%TO.C,C16*%
X106457500Y-41550000D03*
X105817500Y-41550000D03*
%TD*%
D13*
%TO.C,C14*%
X101137500Y-38345000D03*
X101137500Y-38985000D03*
%TD*%
%TO.C,C13*%
X100137500Y-38335000D03*
X100137500Y-38975000D03*
%TD*%
D15*
%TO.C,C12*%
X100250000Y-46640000D03*
X100250000Y-46000000D03*
%TD*%
D13*
%TO.C,C10*%
X102500000Y-53750000D03*
X102500000Y-54390000D03*
%TD*%
D14*
%TO.C,C9*%
X101860000Y-49075000D03*
X102500000Y-49075000D03*
%TD*%
D13*
%TO.C,C8*%
X95025000Y-54250000D03*
X95025000Y-54890000D03*
%TD*%
D14*
%TO.C,C7*%
X98375000Y-56625000D03*
X99015000Y-56625000D03*
%TD*%
%TO.C,C6*%
X98385000Y-59325000D03*
X99025000Y-59325000D03*
%TD*%
%TO.C,C4*%
X110415000Y-31750000D03*
X111055000Y-31750000D03*
%TD*%
%TO.C,C3*%
X87025000Y-31750000D03*
X87665000Y-31750000D03*
%TD*%
D13*
%TO.C,C2*%
X91625000Y-51960000D03*
X91625000Y-52600000D03*
%TD*%
D15*
%TO.C,C1*%
X91625000Y-54875000D03*
X91625000Y-54235000D03*
%TD*%
D17*
%TO.C,U7*%
X91900000Y-62250000D03*
D18*
X89800000Y-62250000D03*
%TD*%
D19*
%TO.C,D1*%
X106825000Y-57250000D03*
X105250000Y-57250000D03*
%TD*%
D20*
%TO.C,U2*%
X99000000Y-43500000D03*
X98500000Y-43500000D03*
X98000000Y-43500000D03*
X97500000Y-43500000D03*
X97500000Y-46350000D03*
X98000000Y-46350000D03*
X98500000Y-46350000D03*
X99000000Y-46350000D03*
D21*
X98250000Y-44925000D03*
%TD*%
D22*
%TO.C,C17*%
X108137500Y-38300000D03*
X108137500Y-39260000D03*
%TD*%
D23*
%TO.C,SW1*%
X110600000Y-30500000D03*
X106000000Y-30500000D03*
X110600000Y-28000000D03*
X106000000Y-28000000D03*
%TD*%
D24*
%TO.C,J2*%
X81500000Y-47685500D03*
D25*
X81500000Y-45145500D03*
X81500000Y-42605500D03*
X81500000Y-40065500D03*
X81500000Y-37525500D03*
%TD*%
D22*
%TO.C,C15*%
X102387500Y-38320000D03*
X102387500Y-39280000D03*
%TD*%
D26*
%TO.C,U3*%
X95175000Y-39600000D03*
X96125000Y-39600000D03*
X97075000Y-39600000D03*
X97075000Y-37325000D03*
X96125000Y-37325000D03*
X95175000Y-37325000D03*
%TD*%
D27*
%TO.C,U1*%
X97000000Y-55200000D03*
X97500000Y-55200000D03*
X98000000Y-55200000D03*
X98500000Y-55200000D03*
X99000000Y-55200000D03*
X99500000Y-55200000D03*
X100000000Y-55200000D03*
X100500000Y-55200000D03*
D28*
X101200000Y-54500000D03*
X101200000Y-54000000D03*
X101200000Y-53500000D03*
X101200000Y-53000000D03*
X101200000Y-52500000D03*
X101200000Y-52000000D03*
X101200000Y-51500000D03*
X101200000Y-51000000D03*
D27*
X100500000Y-50300000D03*
X100000000Y-50300000D03*
X99500000Y-50300000D03*
X99000000Y-50300000D03*
X98500000Y-50300000D03*
X98000000Y-50300000D03*
X97500000Y-50300000D03*
X97000000Y-50300000D03*
D28*
X96300000Y-51000000D03*
X96300000Y-51500000D03*
X96300000Y-52000000D03*
X96300000Y-52500000D03*
X96300000Y-53000000D03*
X96300000Y-53500000D03*
X96300000Y-54000000D03*
X96300000Y-54500000D03*
D29*
X98750000Y-52750000D03*
%TD*%
D19*
%TO.C,D3*%
X106825000Y-60250000D03*
X105250000Y-60250000D03*
%TD*%
D23*
%TO.C,SW3*%
X87350000Y-30500000D03*
X82750000Y-30500000D03*
X87350000Y-28000000D03*
X82750000Y-28000000D03*
%TD*%
D30*
%TO.C,J1*%
X99505000Y-33125000D03*
X93725000Y-33125000D03*
D31*
X99815000Y-34200000D03*
X99015000Y-34200000D03*
D32*
X97865000Y-34200000D03*
X96865000Y-34200000D03*
X96365000Y-34200000D03*
X95365000Y-34200000D03*
D31*
X94215000Y-34200000D03*
X93415000Y-34200000D03*
X93415000Y-34200000D03*
X94215000Y-34200000D03*
D32*
X94865000Y-34200000D03*
X95865000Y-34200000D03*
X97365000Y-34200000D03*
X98365000Y-34200000D03*
D31*
X99015000Y-34200000D03*
X99815000Y-34200000D03*
D33*
X100935000Y-33625000D03*
D34*
X100935000Y-29445000D03*
D33*
X92295000Y-33625000D03*
D34*
X92295000Y-29445000D03*
%TD*%
D22*
%TO.C,C18*%
X95125000Y-58265000D03*
X95125000Y-59225000D03*
%TD*%
D26*
%TO.C,U6*%
X89750000Y-45775000D03*
X90700000Y-45775000D03*
X91650000Y-45775000D03*
X91650000Y-43500000D03*
X90700000Y-43500000D03*
X89750000Y-43500000D03*
%TD*%
D35*
%TO.C,C11*%
X101425000Y-46625000D03*
X101425000Y-45665000D03*
%TD*%
%TO.C,C5*%
X100325000Y-59300000D03*
X100325000Y-58340000D03*
%TD*%
D36*
%TO.C,U4*%
X104112500Y-38300000D03*
X104112500Y-39250000D03*
X104112500Y-40200000D03*
X106387500Y-40200000D03*
X106387500Y-38300000D03*
%TD*%
D37*
%TO.C,D2*%
X106562500Y-35570000D03*
X108137500Y-35570000D03*
%TD*%
M02*
