M48
; DRILL file {KiCad 9.0.0} date 2025-11-24T23:49:08+0000
; FORMAT={-:-/ absolute / metric / decimal}
; #@! TF.CreationDate,2025-11-24T23:49:08+00:00
; #@! TF.GenerationSoftware,Kicad,Pcbnew,9.0.0
; #@! TF.FileFunction,Plated,1,4,PTH
FMAT,2
METRIC
; #@! TA.AperFunction,Plated,PTH,ViaDrill
T1C0.300
; #@! TA.AperFunction,Plated,PTH,ComponentDrill
T2C0.300
; #@! TA.AperFunction,Plated,PTH,ComponentDrill
T3C0.600
; #@! TA.AperFunction,Plated,PTH,ComponentDrill
T4C1.000
%
G90
G05
T1
X81.175Y-28.0
X82.36Y-32.75
X83.75Y-47.75
X84.0Y-39.0
X84.0Y-40.0
X85.0Y-36.5
X87.175Y-54.625
X88.25Y-37.25
X88.35Y-55.95
X88.5Y-31.75
X88.825Y-28.0
X89.8Y-62.25
X89.982Y-42.018
X90.675Y-47.075
X90.75Y-30.675
X92.25Y-53.4
X93.425Y-36.0
X94.0Y-58.5
X94.075Y-38.5
X94.25Y-54.25
X94.5Y-35.95
X95.025Y-55.725
X95.55Y-56.625
X96.2Y-58.525
X96.575Y-43.475
X96.575Y-44.925
X96.75Y-42.25
X98.0Y-36.0
X98.6Y-47.9
X99.125Y-57.4
X99.125Y-58.55
X99.5Y-48.5
X99.875Y-35.975
X100.0Y-42.5
X100.125Y-39.775
X100.3Y-57.525
X100.5Y-60.0
X101.15Y-39.775
X101.4Y-44.8
X102.24Y-48.389
X102.25Y-37.0
X102.25Y-51.4
X102.3Y-49.75
X102.425Y-40.125
X102.5Y-30.65
X103.25Y-54.75
X103.45Y-53.75
X103.475Y-35.575
X103.53Y-59.28
X103.7Y-51.175
X104.0Y-60.25
X104.325Y-51.875
X104.35Y-50.626
X104.4Y-27.975
X105.025Y-41.55
X106.25Y-47.5
X106.75Y-54.75
X107.563Y-50.675
X108.15Y-40.1
X108.25Y-37.5
X109.25Y-42.0
X109.25Y-47.0
X110.0Y-51.625
X110.0Y-52.275
X110.175Y-57.25
X110.2Y-60.25
X110.25Y-49.25
X111.85Y-31.75
X112.075Y-27.975
T2
X97.75Y-51.75
X97.75Y-52.75
X97.75Y-53.75
X98.75Y-51.75
X98.75Y-52.75
X98.75Y-53.75
X99.75Y-51.75
X99.75Y-52.75
X99.75Y-53.75
T4
X81.5Y-37.526
X81.5Y-40.066
X81.5Y-42.605
X81.5Y-45.145
X81.5Y-47.685
T3
X92.295Y-29.845G85X92.295Y-29.045
G05
X92.295Y-34.175G85X92.295Y-33.075
G05
X100.935Y-29.845G85X100.935Y-29.045
G05
X100.935Y-34.175G85X100.935Y-33.075
G05
M30
