%TF.GenerationSoftware,KiCad,Pcbnew,9.0.0*%
%TF.CreationDate,2025-11-24T23:48:52+00:00*%
%TF.ProjectId,wireless_weather,77697265-6c65-4737-935f-776561746865,rev?*%
%TF.SameCoordinates,Original*%
%TF.FileFunction,Copper,L1,Top*%
%TF.FilePolarity,Positive*%
%FSLAX46Y46*%
G04 Gerber Fmt 4.6, Leading zero omitted, Abs format (unit mm)*
G04 Created by KiCad (PCBNEW 9.0.0) date 2025-11-24 23:48:52*
%MOMM*%
%LPD*%
G01*
G04 APERTURE LIST*
G04 Aperture macros list*
%AMRoundRect*
0 Rectangle with rounded corners*
0 $1 Rounding radius*
0 $2 $3 $4 $5 $6 $7 $8 $9 X,Y pos of 4 corners*
0 Add a 4 corners polygon primitive as box body*
4,1,4,$2,$3,$4,$5,$6,$7,$8,$9,$2,$3,0*
0 Add four circle primitives for the rounded corners*
1,1,$1+$1,$2,$3*
1,1,$1+$1,$4,$5*
1,1,$1+$1,$6,$7*
1,1,$1+$1,$8,$9*
0 Add four rect primitives between the rounded corners*
20,1,$1+$1,$2,$3,$4,$5,0*
20,1,$1+$1,$4,$5,$6,$7,0*
20,1,$1+$1,$6,$7,$8,$9,0*
20,1,$1+$1,$8,$9,$2,$3,0*%
G04 Aperture macros list end*
%TA.AperFunction,SMDPad,CuDef*%
%ADD10R,0.800000X0.250000*%
%TD*%
%TA.AperFunction,SMDPad,CuDef*%
%ADD11R,0.250000X0.800000*%
%TD*%
%TA.AperFunction,SMDPad,CuDef*%
%ADD12R,1.200000X1.400000*%
%TD*%
%TA.AperFunction,SMDPad,CuDef*%
%ADD13RoundRect,0.100000X-0.100000X0.130000X-0.100000X-0.130000X0.100000X-0.130000X0.100000X0.130000X0*%
%TD*%
%TA.AperFunction,SMDPad,CuDef*%
%ADD14RoundRect,0.100000X-0.130000X-0.100000X0.130000X-0.100000X0.130000X0.100000X-0.130000X0.100000X0*%
%TD*%
%TA.AperFunction,SMDPad,CuDef*%
%ADD15RoundRect,0.100000X0.100000X-0.130000X0.100000X0.130000X-0.100000X0.130000X-0.100000X-0.130000X0*%
%TD*%
%TA.AperFunction,SMDPad,CuDef*%
%ADD16RoundRect,0.100000X0.130000X0.100000X-0.130000X0.100000X-0.130000X-0.100000X0.130000X-0.100000X0*%
%TD*%
%TA.AperFunction,SMDPad,CuDef*%
%ADD17R,0.500000X0.500000*%
%TD*%
%TA.AperFunction,SMDPad,CuDef*%
%ADD18R,0.900000X0.500000*%
%TD*%
%TA.AperFunction,SMDPad,CuDef*%
%ADD19RoundRect,0.218750X0.218750X0.256250X-0.218750X0.256250X-0.218750X-0.256250X0.218750X-0.256250X0*%
%TD*%
%TA.AperFunction,SMDPad,CuDef*%
%ADD20RoundRect,0.062500X-0.062500X0.387500X-0.062500X-0.387500X0.062500X-0.387500X0.062500X0.387500X0*%
%TD*%
%TA.AperFunction,HeatsinkPad*%
%ADD21R,1.600000X0.200000*%
%TD*%
%TA.AperFunction,SMDPad,CuDef*%
%ADD22RoundRect,0.140000X-0.170000X0.140000X-0.170000X-0.140000X0.170000X-0.140000X0.170000X0.140000X0*%
%TD*%
%TA.AperFunction,SMDPad,CuDef*%
%ADD23RoundRect,0.150000X0.600000X0.350000X-0.600000X0.350000X-0.600000X-0.350000X0.600000X-0.350000X0*%
%TD*%
%TA.AperFunction,ComponentPad*%
%ADD24R,1.700000X1.700000*%
%TD*%
%TA.AperFunction,ComponentPad*%
%ADD25O,1.700000X1.700000*%
%TD*%
%TA.AperFunction,SMDPad,CuDef*%
%ADD26RoundRect,0.150000X0.150000X-0.512500X0.150000X0.512500X-0.150000X0.512500X-0.150000X-0.512500X0*%
%TD*%
%TA.AperFunction,SMDPad,CuDef*%
%ADD27RoundRect,0.062500X0.062500X-0.337500X0.062500X0.337500X-0.062500X0.337500X-0.062500X-0.337500X0*%
%TD*%
%TA.AperFunction,SMDPad,CuDef*%
%ADD28RoundRect,0.062500X0.337500X-0.062500X0.337500X0.062500X-0.337500X0.062500X-0.337500X-0.062500X0*%
%TD*%
%TA.AperFunction,HeatsinkPad*%
%ADD29C,0.600000*%
%TD*%
%TA.AperFunction,HeatsinkPad*%
%ADD30R,3.700000X3.700000*%
%TD*%
%TA.AperFunction,SMDPad,CuDef*%
%ADD31RoundRect,0.150000X0.150000X0.425000X-0.150000X0.425000X-0.150000X-0.425000X0.150000X-0.425000X0*%
%TD*%
%TA.AperFunction,SMDPad,CuDef*%
%ADD32RoundRect,0.075000X0.075000X0.500000X-0.075000X0.500000X-0.075000X-0.500000X0.075000X-0.500000X0*%
%TD*%
%TA.AperFunction,HeatsinkPad*%
%ADD33O,1.000000X2.100000*%
%TD*%
%TA.AperFunction,HeatsinkPad*%
%ADD34O,1.000000X1.800000*%
%TD*%
%TA.AperFunction,SMDPad,CuDef*%
%ADD35RoundRect,0.140000X0.170000X-0.140000X0.170000X0.140000X-0.170000X0.140000X-0.170000X-0.140000X0*%
%TD*%
%TA.AperFunction,SMDPad,CuDef*%
%ADD36RoundRect,0.150000X-0.512500X-0.150000X0.512500X-0.150000X0.512500X0.150000X-0.512500X0.150000X0*%
%TD*%
%TA.AperFunction,SMDPad,CuDef*%
%ADD37RoundRect,0.218750X-0.218750X-0.256250X0.218750X-0.256250X0.218750X0.256250X-0.218750X0.256250X0*%
%TD*%
%TA.AperFunction,ViaPad*%
%ADD38C,0.500000*%
%TD*%
%TA.AperFunction,ViaPad*%
%ADD39C,0.600000*%
%TD*%
%TA.AperFunction,Conductor*%
%ADD40C,0.300000*%
%TD*%
%TA.AperFunction,Conductor*%
%ADD41C,0.200000*%
%TD*%
%TA.AperFunction,Conductor*%
%ADD42C,0.400000*%
%TD*%
%TA.AperFunction,Conductor*%
%ADD43C,0.500000*%
%TD*%
%TA.AperFunction,Conductor*%
%ADD44C,0.156464*%
%TD*%
G04 APERTURE END LIST*
%TA.AperFunction,EtchedComponent*%
%TO.C,U7*%
G36*
X89350000Y-62500000D02*
G01*
X90250000Y-62500000D01*
X90250000Y-66900000D01*
X89350000Y-66900000D01*
X89350000Y-62500000D01*
G37*
%TD.AperFunction*%
%TA.AperFunction,EtchedComponent*%
G36*
X89350000Y-66900000D02*
G01*
X94350000Y-66900000D01*
X94350000Y-67400000D01*
X89350000Y-67400000D01*
X89350000Y-66900000D01*
G37*
%TD.AperFunction*%
%TA.AperFunction,EtchedComponent*%
G36*
X91650000Y-62500000D02*
G01*
X92150000Y-62500000D01*
X92150000Y-66900000D01*
X91650000Y-66900000D01*
X91650000Y-62500000D01*
G37*
%TD.AperFunction*%
%TA.AperFunction,EtchedComponent*%
G36*
X93850000Y-64260000D02*
G01*
X94350000Y-64260000D01*
X94350000Y-66900000D01*
X93850000Y-66900000D01*
X93850000Y-64260000D01*
G37*
%TD.AperFunction*%
%TA.AperFunction,EtchedComponent*%
G36*
X94350000Y-64260000D02*
G01*
X96350000Y-64260000D01*
X96350000Y-64760000D01*
X94350000Y-64760000D01*
X94350000Y-64260000D01*
G37*
%TD.AperFunction*%
%TA.AperFunction,EtchedComponent*%
G36*
X96350000Y-64260000D02*
G01*
X96850000Y-64260000D01*
X96850000Y-66900000D01*
X96350000Y-66900000D01*
X96350000Y-64260000D01*
G37*
%TD.AperFunction*%
%TA.AperFunction,EtchedComponent*%
G36*
X96350000Y-66900000D02*
G01*
X99050000Y-66900000D01*
X99050000Y-67400000D01*
X96350000Y-67400000D01*
X96350000Y-66900000D01*
G37*
%TD.AperFunction*%
%TA.AperFunction,EtchedComponent*%
G36*
X98550000Y-64260000D02*
G01*
X99050000Y-64260000D01*
X99050000Y-66900000D01*
X98550000Y-66900000D01*
X98550000Y-64260000D01*
G37*
%TD.AperFunction*%
%TA.AperFunction,EtchedComponent*%
G36*
X99050000Y-64260000D02*
G01*
X101050000Y-64260000D01*
X101050000Y-64760000D01*
X99050000Y-64760000D01*
X99050000Y-64260000D01*
G37*
%TD.AperFunction*%
%TA.AperFunction,EtchedComponent*%
G36*
X101050000Y-64260000D02*
G01*
X101550000Y-64260000D01*
X101550000Y-66900000D01*
X101050000Y-66900000D01*
X101050000Y-64260000D01*
G37*
%TD.AperFunction*%
%TA.AperFunction,EtchedComponent*%
G36*
X101050000Y-66900000D02*
G01*
X103750000Y-66900000D01*
X103750000Y-67400000D01*
X101050000Y-67400000D01*
X101050000Y-66900000D01*
G37*
%TD.AperFunction*%
%TA.AperFunction,EtchedComponent*%
G36*
X103250000Y-62960000D02*
G01*
X103750000Y-62960000D01*
X103750000Y-66900000D01*
X103250000Y-66900000D01*
X103250000Y-62960000D01*
G37*
%TD.AperFunction*%
%TD*%
D10*
%TO.P,U5,1,INT2*%
%TO.N,unconnected-(U5-INT2-Pad1)*%
X108670000Y-49230000D03*
%TO.P,U5,2,NC*%
%TO.N,GND*%
X108670000Y-49730000D03*
%TO.P,U5,3,VDD*%
%TO.N,+3.3V*%
X108670000Y-50230000D03*
%TO.P,U5,4,GNDA*%
%TO.N,GND*%
X108670000Y-50730000D03*
%TO.P,U5,5,CSB2*%
%TO.N,/FSPI_NCS_2*%
X108670000Y-51230000D03*
%TO.P,U5,6,GNDIO*%
%TO.N,GND*%
X108670000Y-51730000D03*
%TO.P,U5,7,PS*%
X108670000Y-52230000D03*
%TO.P,U5,9,SDA/SDI*%
%TO.N,/FSPID*%
X106270000Y-52230000D03*
%TO.P,U5,10,SDO2*%
%TO.N,/FSPIQ*%
X106270000Y-51730000D03*
%TO.P,U5,11,VDDIO*%
%TO.N,+3.3V*%
X106270000Y-51230000D03*
%TO.P,U5,12,INT3*%
%TO.N,/INT_GYRO_GPIO9*%
X106270000Y-50730000D03*
%TO.P,U5,13,INT4*%
%TO.N,unconnected-(U5-INT4-Pad13)*%
X106270000Y-50230000D03*
%TO.P,U5,14,CSB1*%
%TO.N,/FSPI_NCS*%
X106270000Y-49730000D03*
%TO.P,U5,15,SDO1*%
%TO.N,/FSPIQ*%
X106270000Y-49230000D03*
D11*
%TO.P,U5,8,SCL/SCK*%
%TO.N,/FSPI_CLK*%
X107470000Y-52630000D03*
%TO.P,U5,16,INT1*%
%TO.N,/INT_ACC*%
X107470000Y-48830000D03*
%TD*%
D12*
%TO.P,Y1,1,1*%
%TO.N,Net-(C1-Pad1)*%
X90075000Y-54575000D03*
%TO.P,Y1,2,2*%
%TO.N,GND*%
X90075000Y-52375000D03*
%TO.P,Y1,3,3*%
%TO.N,Net-(U1-XTAL_N)*%
X88375000Y-52375000D03*
%TO.P,Y1,4,4*%
%TO.N,GND*%
X88375000Y-54575000D03*
%TD*%
D13*
%TO.P,L3,1,1*%
%TO.N,Net-(U1-LNA_IN)*%
X97000000Y-57600000D03*
%TO.P,L3,2,2*%
%TO.N,Net-(U7-SIG_IN)*%
X97000000Y-58240000D03*
%TD*%
D14*
%TO.P,L2,1,1*%
%TO.N,VBUS*%
X100297500Y-37310000D03*
%TO.P,L2,2,2*%
%TO.N,/VBUS_FILT*%
X100937500Y-37310000D03*
%TD*%
D15*
%TO.P,L1,1,1*%
%TO.N,+3.3V*%
X98375000Y-58265000D03*
%TO.P,L1,2,2*%
%TO.N,/3V3_RF*%
X98375000Y-57625000D03*
%TD*%
D14*
%TO.P,R13,1*%
%TO.N,Net-(U1-MTCK)*%
X106085000Y-53750000D03*
%TO.P,R13,2*%
%TO.N,/FSPI_CLK*%
X106725000Y-53750000D03*
%TD*%
%TO.P,R12,1*%
%TO.N,Net-(D3-K)*%
X108775000Y-60250000D03*
%TO.P,R12,2*%
%TO.N,GND*%
X109415000Y-60250000D03*
%TD*%
%TO.P,R11,1*%
%TO.N,Net-(D1-K)*%
X108755000Y-57250000D03*
%TO.P,R11,2*%
%TO.N,GND*%
X109395000Y-57250000D03*
%TD*%
%TO.P,R10,1*%
%TO.N,+3.3V*%
X108180000Y-53750000D03*
%TO.P,R10,2*%
%TO.N,/FSPI_NCS_2*%
X108820000Y-53750000D03*
%TD*%
D13*
%TO.P,R9,1*%
%TO.N,+3.3V*%
X105000000Y-48335000D03*
%TO.P,R9,2*%
%TO.N,/FSPIQ*%
X105000000Y-48975000D03*
%TD*%
%TO.P,R8,1*%
%TO.N,/UART_TX*%
X91650000Y-47760000D03*
%TO.P,R8,2*%
%TO.N,Net-(U1-U0RXD)*%
X91650000Y-48400000D03*
%TD*%
%TO.P,R7,1*%
%TO.N,/UART_RX*%
X89750000Y-47750000D03*
%TO.P,R7,2*%
%TO.N,Net-(U1-U0TXD)*%
X89750000Y-48390000D03*
%TD*%
D14*
%TO.P,R6,1*%
%TO.N,+3.3V*%
X105750000Y-31750000D03*
%TO.P,R6,2*%
%TO.N,/INT_GYRO_GPIO9*%
X106390000Y-31750000D03*
%TD*%
D16*
%TO.P,R5,1*%
%TO.N,Net-(D2-K)*%
X104887500Y-35570000D03*
%TO.P,R5,2*%
%TO.N,GND*%
X104247500Y-35570000D03*
%TD*%
D15*
%TO.P,R4,1*%
%TO.N,Net-(J1-CC2)*%
X90750000Y-32070000D03*
%TO.P,R4,2*%
%TO.N,GND*%
X90750000Y-31430000D03*
%TD*%
%TO.P,R3,1*%
%TO.N,Net-(J1-CC1)*%
X102500000Y-32070000D03*
%TO.P,R3,2*%
%TO.N,GND*%
X102500000Y-31430000D03*
%TD*%
%TO.P,R2,1*%
%TO.N,Net-(C1-Pad1)*%
X92875000Y-54900000D03*
%TO.P,R2,2*%
%TO.N,Net-(U1-XTAL_P)*%
X92875000Y-54260000D03*
%TD*%
D14*
%TO.P,R1,1*%
%TO.N,+3.3V*%
X82360000Y-31750000D03*
%TO.P,R1,2*%
%TO.N,/MPU_EN*%
X83000000Y-31750000D03*
%TD*%
D13*
%TO.P,C23,1*%
%TO.N,/VBUS_FILT*%
X84000000Y-37525000D03*
%TO.P,C23,2*%
%TO.N,GND*%
X84000000Y-38165000D03*
%TD*%
D15*
%TO.P,C22,1*%
%TO.N,+3.3V*%
X105150000Y-51570000D03*
%TO.P,C22,2*%
%TO.N,GND*%
X105150000Y-50930000D03*
%TD*%
D13*
%TO.P,C21,1*%
%TO.N,+3.3V*%
X109975000Y-50185000D03*
%TO.P,C21,2*%
%TO.N,GND*%
X109975000Y-50825000D03*
%TD*%
D16*
%TO.P,C20,1*%
%TO.N,Net-(U7-SIG_IN)*%
X97000000Y-59325000D03*
%TO.P,C20,2*%
%TO.N,GND*%
X96360000Y-59325000D03*
%TD*%
%TO.P,C19,1*%
%TO.N,Net-(U1-LNA_IN)*%
X97000000Y-56625000D03*
%TO.P,C19,2*%
%TO.N,GND*%
X96360000Y-56625000D03*
%TD*%
%TO.P,C16,1*%
%TO.N,Net-(U4-BP)*%
X106457500Y-41550000D03*
%TO.P,C16,2*%
%TO.N,GND*%
X105817500Y-41550000D03*
%TD*%
D13*
%TO.P,C14,1*%
%TO.N,/VBUS_FILT*%
X101137500Y-38345000D03*
%TO.P,C14,2*%
%TO.N,GND*%
X101137500Y-38985000D03*
%TD*%
%TO.P,C13,1*%
%TO.N,VBUS*%
X100137500Y-38335000D03*
%TO.P,C13,2*%
%TO.N,GND*%
X100137500Y-38975000D03*
%TD*%
D15*
%TO.P,C12,1*%
%TO.N,/VCC_SPI*%
X100250000Y-46640000D03*
%TO.P,C12,2*%
%TO.N,GND*%
X100250000Y-46000000D03*
%TD*%
D13*
%TO.P,C10,1*%
%TO.N,+3.3V*%
X102500000Y-53750000D03*
%TO.P,C10,2*%
%TO.N,GND*%
X102500000Y-54390000D03*
%TD*%
D14*
%TO.P,C9,1*%
%TO.N,+3.3V*%
X101860000Y-49075000D03*
%TO.P,C9,2*%
%TO.N,GND*%
X102500000Y-49075000D03*
%TD*%
D13*
%TO.P,C8,1*%
%TO.N,+3.3V*%
X95025000Y-54250000D03*
%TO.P,C8,2*%
%TO.N,GND*%
X95025000Y-54890000D03*
%TD*%
D14*
%TO.P,C7,1*%
%TO.N,/3V3_RF*%
X98375000Y-56625000D03*
%TO.P,C7,2*%
%TO.N,GND*%
X99015000Y-56625000D03*
%TD*%
%TO.P,C6,1*%
%TO.N,+3.3V*%
X98385000Y-59325000D03*
%TO.P,C6,2*%
%TO.N,GND*%
X99025000Y-59325000D03*
%TD*%
%TO.P,C4,1*%
%TO.N,/INT_GYRO_GPIO9*%
X110415000Y-31750000D03*
%TO.P,C4,2*%
%TO.N,GND*%
X111055000Y-31750000D03*
%TD*%
%TO.P,C3,1*%
%TO.N,/MPU_EN*%
X87025000Y-31750000D03*
%TO.P,C3,2*%
%TO.N,GND*%
X87665000Y-31750000D03*
%TD*%
D13*
%TO.P,C2,1*%
%TO.N,Net-(U1-XTAL_N)*%
X91625000Y-51960000D03*
%TO.P,C2,2*%
%TO.N,GND*%
X91625000Y-52600000D03*
%TD*%
D15*
%TO.P,C1,1*%
%TO.N,Net-(C1-Pad1)*%
X91625000Y-54875000D03*
%TO.P,C1,2*%
%TO.N,GND*%
X91625000Y-54235000D03*
%TD*%
D17*
%TO.P,U7,1,SIG_IN*%
%TO.N,Net-(U7-SIG_IN)*%
X91900000Y-62250000D03*
D18*
%TO.P,U7,2,GND*%
%TO.N,GND*%
X89800000Y-62250000D03*
%TD*%
D19*
%TO.P,D1,1,K*%
%TO.N,Net-(D1-K)*%
X106825000Y-57250000D03*
%TO.P,D1,2,A*%
%TO.N,/LED_A*%
X105250000Y-57250000D03*
%TD*%
D20*
%TO.P,U2,1,~{CS}*%
%TO.N,/SPI_NCS*%
X99000000Y-43500000D03*
%TO.P,U2,2,DO/IO_{1}*%
%TO.N,/SPI_DO*%
X98500000Y-43500000D03*
%TO.P,U2,3,~{WP}/IO_{2}*%
%TO.N,/SPI_NWP*%
X98000000Y-43500000D03*
%TO.P,U2,4,GND*%
%TO.N,GND*%
X97500000Y-43500000D03*
%TO.P,U2,5,DI/IO_{0}*%
%TO.N,/SPI_DI*%
X97500000Y-46350000D03*
%TO.P,U2,6,CLK*%
%TO.N,/SPI_CLK*%
X98000000Y-46350000D03*
%TO.P,U2,7,~{HOLD}/~{RESET}/IO_{3}*%
%TO.N,/SPI_NHLD*%
X98500000Y-46350000D03*
%TO.P,U2,8,VCC*%
%TO.N,/VCC_SPI*%
X99000000Y-46350000D03*
D21*
%TO.P,U2,9,EP*%
%TO.N,GND*%
X98250000Y-44925000D03*
%TD*%
D22*
%TO.P,C17,1*%
%TO.N,+3.3V*%
X108137500Y-38300000D03*
%TO.P,C17,2*%
%TO.N,GND*%
X108137500Y-39260000D03*
%TD*%
D23*
%TO.P,SW1,1,1*%
%TO.N,/INT_GYRO_GPIO9*%
X110600000Y-30500000D03*
%TO.P,SW1,2,2*%
X106000000Y-30500000D03*
%TO.P,SW1,3,K*%
%TO.N,GND*%
X110600000Y-28000000D03*
%TO.P,SW1,4,A*%
X106000000Y-28000000D03*
%TD*%
D24*
%TO.P,J2,1,Pin_1*%
%TO.N,GND*%
X81500000Y-47685500D03*
D25*
%TO.P,J2,2,Pin_2*%
%TO.N,Net-(J2-Pin_2)*%
X81500000Y-45145500D03*
%TO.P,J2,3,Pin_3*%
%TO.N,Net-(J2-Pin_3)*%
X81500000Y-42605500D03*
%TO.P,J2,4,Pin_4*%
%TO.N,GND*%
X81500000Y-40065500D03*
%TO.P,J2,5,Pin_5*%
%TO.N,/VBUS_FILT*%
X81500000Y-37525500D03*
%TD*%
D22*
%TO.P,C15,1*%
%TO.N,/VBUS_FILT*%
X102387500Y-38320000D03*
%TO.P,C15,2*%
%TO.N,GND*%
X102387500Y-39280000D03*
%TD*%
D26*
%TO.P,U3,1,I/O1*%
%TO.N,/USB_D_P*%
X95175000Y-39600000D03*
%TO.P,U3,2,GND*%
%TO.N,GND*%
X96125000Y-39600000D03*
%TO.P,U3,3,I/O2*%
%TO.N,/USB_D_N*%
X97075000Y-39600000D03*
%TO.P,U3,4,I/O2*%
%TO.N,/USB_IN_N*%
X97075000Y-37325000D03*
%TO.P,U3,5,VBUS*%
%TO.N,VBUS*%
X96125000Y-37325000D03*
%TO.P,U3,6,I/O1*%
%TO.N,/USB_IN_P*%
X95175000Y-37325000D03*
%TD*%
D27*
%TO.P,U1,1,LNA_IN*%
%TO.N,Net-(U1-LNA_IN)*%
X97000000Y-55200000D03*
%TO.P,U1,2,VDD3P3*%
%TO.N,/3V3_RF*%
X97500000Y-55200000D03*
%TO.P,U1,3,VDD3P3*%
X98000000Y-55200000D03*
%TO.P,U1,4,XTAL_32K_P*%
%TO.N,unconnected-(U1-XTAL_32K_P-Pad4)*%
X98500000Y-55200000D03*
%TO.P,U1,5,XTAL_32K_N*%
%TO.N,unconnected-(U1-XTAL_32K_N-Pad5)*%
X99000000Y-55200000D03*
%TO.P,U1,6,GPIO2*%
%TO.N,/FSPIQ*%
X99500000Y-55200000D03*
%TO.P,U1,7,CHIP_EN*%
%TO.N,/MPU_EN*%
X100000000Y-55200000D03*
%TO.P,U1,8,GPIO3*%
%TO.N,/LED_B*%
X100500000Y-55200000D03*
D28*
%TO.P,U1,9,MTMS*%
%TO.N,/LED_A*%
X101200000Y-54500000D03*
%TO.P,U1,10,MTDI*%
%TO.N,/INT_ACC*%
X101200000Y-54000000D03*
%TO.P,U1,11,VDD3P3_RTC*%
%TO.N,+3.3V*%
X101200000Y-53500000D03*
%TO.P,U1,12,MTCK*%
%TO.N,Net-(U1-MTCK)*%
X101200000Y-53000000D03*
%TO.P,U1,13,MTDO*%
%TO.N,/FSPID*%
X101200000Y-52500000D03*
%TO.P,U1,14,GPIO8*%
%TO.N,/FSPI_NCS_2*%
X101200000Y-52000000D03*
%TO.P,U1,15,GPIO9*%
%TO.N,/INT_GYRO_GPIO9*%
X101200000Y-51500000D03*
%TO.P,U1,16,GPIO10*%
%TO.N,/FSPI_NCS*%
X101200000Y-51000000D03*
D27*
%TO.P,U1,17,VDD3P3_CPU*%
%TO.N,+3.3V*%
X100500000Y-50300000D03*
%TO.P,U1,18,VDD_SPI*%
%TO.N,/VCC_SPI*%
X100000000Y-50300000D03*
%TO.P,U1,19,SPIHD*%
%TO.N,/SPI_NHLD*%
X99500000Y-50300000D03*
%TO.P,U1,20,SPIWP*%
%TO.N,/SPI_NWP*%
X99000000Y-50300000D03*
%TO.P,U1,21,SPICS0*%
%TO.N,/SPI_NCS*%
X98500000Y-50300000D03*
%TO.P,U1,22,SPICLK*%
%TO.N,/SPI_CLK*%
X98000000Y-50300000D03*
%TO.P,U1,23,SPID*%
%TO.N,/SPI_DI*%
X97500000Y-50300000D03*
%TO.P,U1,24,SPIQ*%
%TO.N,/SPI_DO*%
X97000000Y-50300000D03*
D28*
%TO.P,U1,25,GPIO18*%
%TO.N,/USB_D_N*%
X96300000Y-51000000D03*
%TO.P,U1,26,GPIO19*%
%TO.N,/USB_D_P*%
X96300000Y-51500000D03*
%TO.P,U1,27,U0RXD*%
%TO.N,Net-(U1-U0RXD)*%
X96300000Y-52000000D03*
%TO.P,U1,28,U0TXD*%
%TO.N,Net-(U1-U0TXD)*%
X96300000Y-52500000D03*
%TO.P,U1,29,XTAL_N*%
%TO.N,Net-(U1-XTAL_N)*%
X96300000Y-53000000D03*
%TO.P,U1,30,XTAL_P*%
%TO.N,Net-(U1-XTAL_P)*%
X96300000Y-53500000D03*
%TO.P,U1,31,VDDA*%
%TO.N,+3.3V*%
X96300000Y-54000000D03*
%TO.P,U1,32,VDDA*%
X96300000Y-54500000D03*
D29*
%TO.P,U1,33,GND*%
%TO.N,GND*%
X97750000Y-53750000D03*
X98750000Y-53750000D03*
X99750000Y-53750000D03*
X97750000Y-52750000D03*
X98750000Y-52750000D03*
D30*
X98750000Y-52750000D03*
D29*
X99750000Y-52750000D03*
X97750000Y-51750000D03*
X98750000Y-51750000D03*
X99750000Y-51750000D03*
%TD*%
D19*
%TO.P,D3,1,K*%
%TO.N,Net-(D3-K)*%
X106825000Y-60250000D03*
%TO.P,D3,2,A*%
%TO.N,/LED_B*%
X105250000Y-60250000D03*
%TD*%
D23*
%TO.P,SW3,1,1*%
%TO.N,/MPU_EN*%
X87350000Y-30500000D03*
%TO.P,SW3,2,2*%
X82750000Y-30500000D03*
%TO.P,SW3,3,K*%
%TO.N,GND*%
X87350000Y-28000000D03*
%TO.P,SW3,4,A*%
X82750000Y-28000000D03*
%TD*%
D31*
%TO.P,J1,A1,GND*%
%TO.N,GND*%
X99815000Y-34200000D03*
%TO.P,J1,A4,VBUS*%
%TO.N,VBUS*%
X99015000Y-34200000D03*
D32*
%TO.P,J1,A5,CC1*%
%TO.N,Net-(J1-CC1)*%
X97865000Y-34200000D03*
%TO.P,J1,A6,D+*%
%TO.N,/USB_IN_P*%
X96865000Y-34200000D03*
%TO.P,J1,A7,D-*%
%TO.N,/USB_IN_N*%
X96365000Y-34200000D03*
%TO.P,J1,A8,SBU1*%
%TO.N,unconnected-(J1-SBU1-PadA8)*%
X95365000Y-34200000D03*
D31*
%TO.P,J1,A9,VBUS*%
%TO.N,VBUS*%
X94215000Y-34200000D03*
%TO.P,J1,A12,GND*%
%TO.N,GND*%
X93415000Y-34200000D03*
%TO.P,J1,B1,GND*%
X93415000Y-34200000D03*
%TO.P,J1,B4,VBUS*%
%TO.N,VBUS*%
X94215000Y-34200000D03*
D32*
%TO.P,J1,B5,CC2*%
%TO.N,Net-(J1-CC2)*%
X94865000Y-34200000D03*
%TO.P,J1,B6,D+*%
%TO.N,/USB_IN_P*%
X95865000Y-34200000D03*
%TO.P,J1,B7,D-*%
%TO.N,/USB_IN_N*%
X97365000Y-34200000D03*
%TO.P,J1,B8,SBU2*%
%TO.N,unconnected-(J1-SBU2-PadB8)*%
X98365000Y-34200000D03*
D31*
%TO.P,J1,B9,VBUS*%
%TO.N,VBUS*%
X99015000Y-34200000D03*
%TO.P,J1,B12,GND*%
%TO.N,GND*%
X99815000Y-34200000D03*
D33*
%TO.P,J1,S1,SHIELD*%
%TO.N,unconnected-(J1-SHIELD-PadS1)_3*%
X100935000Y-33625000D03*
D34*
%TO.N,unconnected-(J1-SHIELD-PadS1)_2*%
X100935000Y-29445000D03*
D33*
%TO.N,unconnected-(J1-SHIELD-PadS1)_1*%
X92295000Y-33625000D03*
D34*
%TO.N,unconnected-(J1-SHIELD-PadS1)*%
X92295000Y-29445000D03*
%TD*%
D22*
%TO.P,C18,1*%
%TO.N,+3.3V*%
X95125000Y-58265000D03*
%TO.P,C18,2*%
%TO.N,GND*%
X95125000Y-59225000D03*
%TD*%
D26*
%TO.P,U6,1,I/O1*%
%TO.N,/UART_RX*%
X89750000Y-45775000D03*
%TO.P,U6,2,GND*%
%TO.N,GND*%
X90700000Y-45775000D03*
%TO.P,U6,3,I/O2*%
%TO.N,/UART_TX*%
X91650000Y-45775000D03*
%TO.P,U6,4,I/O2*%
%TO.N,Net-(J2-Pin_3)*%
X91650000Y-43500000D03*
%TO.P,U6,5,VBUS*%
%TO.N,/VBUS_FILT*%
X90700000Y-43500000D03*
%TO.P,U6,6,I/O1*%
%TO.N,Net-(J2-Pin_2)*%
X89750000Y-43500000D03*
%TD*%
D35*
%TO.P,C11,1*%
%TO.N,/VCC_SPI*%
X101425000Y-46625000D03*
%TO.P,C11,2*%
%TO.N,GND*%
X101425000Y-45665000D03*
%TD*%
%TO.P,C5,1*%
%TO.N,+3.3V*%
X100325000Y-59300000D03*
%TO.P,C5,2*%
%TO.N,GND*%
X100325000Y-58340000D03*
%TD*%
D36*
%TO.P,U4,1,IN*%
%TO.N,/VBUS_FILT*%
X104112500Y-38300000D03*
%TO.P,U4,2,GND*%
%TO.N,GND*%
X104112500Y-39250000D03*
%TO.P,U4,3,EN*%
%TO.N,/VBUS_FILT*%
X104112500Y-40200000D03*
%TO.P,U4,4,BP*%
%TO.N,Net-(U4-BP)*%
X106387500Y-40200000D03*
%TO.P,U4,5,OUT*%
%TO.N,+3.3V*%
X106387500Y-38300000D03*
%TD*%
D37*
%TO.P,D2,1,K*%
%TO.N,Net-(D2-K)*%
X106562500Y-35570000D03*
%TO.P,D2,2,A*%
%TO.N,+3.3V*%
X108137500Y-35570000D03*
%TD*%
D38*
%TO.N,GND*%
X89800000Y-62250000D03*
D39*
X92250000Y-53400000D03*
X99875000Y-35975000D03*
X108150000Y-40100000D03*
X84000000Y-40000000D03*
X93425000Y-36000000D03*
X104400000Y-27975000D03*
X90750000Y-30675000D03*
X110200000Y-60250000D03*
X99125000Y-58550000D03*
X111850000Y-31750000D03*
X88825000Y-28000000D03*
X104350000Y-50626000D03*
X90675000Y-47075000D03*
X83750000Y-47750000D03*
X110000000Y-52275000D03*
X99125000Y-57400000D03*
X96200000Y-58525000D03*
X100125000Y-39775000D03*
X101400000Y-44800000D03*
X94075000Y-38500000D03*
X110175000Y-57250000D03*
X87175000Y-54625000D03*
X110000000Y-51625000D03*
X95025000Y-55725000D03*
X102300000Y-49750000D03*
X88350000Y-55950000D03*
X105025000Y-41550000D03*
X96575000Y-44925000D03*
X95550000Y-56625000D03*
X96575000Y-43475000D03*
X100300000Y-57525000D03*
X84000000Y-39000000D03*
X103475000Y-35575000D03*
X102425000Y-40125000D03*
X101150000Y-39775000D03*
X102500000Y-30650000D03*
X103250000Y-54750000D03*
X112075000Y-27975000D03*
X81175000Y-28000000D03*
X88500000Y-31750000D03*
%TO.N,/MPU_EN*%
X85000000Y-36500000D03*
X104000000Y-60250000D03*
%TO.N,/INT_GYRO_GPIO9*%
X109250000Y-42000000D03*
X102250000Y-51400000D03*
%TO.N,+3.3V*%
X106750000Y-54750000D03*
X110250000Y-49250000D03*
X100500000Y-60000000D03*
X102239722Y-48389159D03*
X108250000Y-37500000D03*
X106250000Y-47500000D03*
X82360000Y-32750000D03*
X94250000Y-54250000D03*
X103450000Y-53750000D03*
X104325000Y-51875000D03*
X94000000Y-58500000D03*
%TO.N,VBUS*%
X98000000Y-36000000D03*
X94500000Y-35950000D03*
%TO.N,/VBUS_FILT*%
X89981985Y-42018015D03*
X88250000Y-37250000D03*
X102250000Y-37000000D03*
%TO.N,/FSPIQ*%
X103530331Y-59280331D03*
X109250000Y-47000000D03*
%TO.N,/FSPI_NCS_2*%
X103700000Y-51175000D03*
X107563500Y-50675000D03*
%TO.N,/SPI_NCS*%
X100000000Y-42500000D03*
X98600000Y-47900000D03*
%TO.N,/SPI_NWP*%
X99500000Y-48500000D03*
X96750000Y-42250000D03*
%TD*%
D40*
%TO.N,GND*%
X91625000Y-52600000D02*
X91625000Y-52775000D01*
X91625000Y-52775000D02*
X92250000Y-53400000D01*
D41*
%TO.N,/FSPIQ*%
X106270000Y-49230000D02*
X106797000Y-49230000D01*
X106870000Y-51730000D02*
X106270000Y-51730000D01*
X106797000Y-49230000D02*
X106921000Y-49354000D01*
X106921000Y-49354000D02*
X106921000Y-51679000D01*
X106921000Y-51679000D02*
X106870000Y-51730000D01*
D40*
%TO.N,+3.3V*%
X105380582Y-51570000D02*
X105720582Y-51230000D01*
X105720582Y-51230000D02*
X106270000Y-51230000D01*
D41*
%TO.N,/FSPI_NCS*%
X103832957Y-49625000D02*
X106165000Y-49625000D01*
X106165000Y-49625000D02*
X106270000Y-49730000D01*
%TO.N,/INT_GYRO_GPIO9*%
X102250000Y-51400000D02*
X102350000Y-51500000D01*
X102350000Y-51500000D02*
X102525057Y-51500000D01*
X102525057Y-51500000D02*
X103999057Y-50026000D01*
X105112500Y-50026000D02*
X105816500Y-50730000D01*
X103999057Y-50026000D02*
X105112500Y-50026000D01*
X105816500Y-50730000D02*
X106270000Y-50730000D01*
%TO.N,/FSPIQ*%
X107932900Y-47000000D02*
X106270000Y-48662900D01*
X106270000Y-48662900D02*
X106270000Y-49230000D01*
D40*
X105000000Y-48975000D02*
X106015000Y-48975000D01*
X106015000Y-48975000D02*
X106270000Y-49230000D01*
D41*
%TO.N,/INT_ACC*%
X110750000Y-47750000D02*
X108550000Y-47750000D01*
X108550000Y-47750000D02*
X107470000Y-48830000D01*
%TO.N,GND*%
X109572191Y-49465309D02*
X109307500Y-49730000D01*
X109307500Y-49730000D02*
X108670000Y-49730000D01*
D40*
%TO.N,+3.3V*%
X109975000Y-50185000D02*
X108715000Y-50185000D01*
X108715000Y-50185000D02*
X108670000Y-50230000D01*
%TO.N,GND*%
X109975000Y-50825000D02*
X109880000Y-50730000D01*
X109880000Y-50730000D02*
X108670000Y-50730000D01*
X110000000Y-51625000D02*
X109895000Y-51730000D01*
X109895000Y-51730000D02*
X108670000Y-51730000D01*
X108670000Y-51730000D02*
X108670000Y-52230000D01*
X110000000Y-52275000D02*
X108715000Y-52275000D01*
X108715000Y-52275000D02*
X108670000Y-52230000D01*
D41*
%TO.N,/FSPI_NCS_2*%
X108820000Y-53750000D02*
X108820000Y-53270000D01*
X108820000Y-53270000D02*
X107846000Y-52296000D01*
X107846000Y-52296000D02*
X107846000Y-50957500D01*
X107846000Y-50957500D02*
X107563500Y-50675000D01*
X107563500Y-50675000D02*
X108118500Y-51230000D01*
X108118500Y-51230000D02*
X108670000Y-51230000D01*
%TO.N,/FSPI_CLK*%
X106725000Y-53750000D02*
X106725000Y-53375000D01*
X106725000Y-53375000D02*
X107470000Y-52630000D01*
D42*
%TO.N,VBUS*%
X100297500Y-37310000D02*
X100297500Y-38175000D01*
X100297500Y-38175000D02*
X100137500Y-38335000D01*
D43*
X99015000Y-36901600D02*
X98870800Y-37045800D01*
X98870800Y-37045800D02*
X98870800Y-37068300D01*
X98870800Y-37068300D02*
X100137500Y-38335000D01*
%TO.N,GND*%
X88350000Y-55950000D02*
X88350000Y-54600000D01*
D40*
X100125000Y-39775000D02*
X100125000Y-38987500D01*
X104574000Y-50850000D02*
X105070000Y-50850000D01*
X110175000Y-57250000D02*
X109395000Y-57250000D01*
D41*
X110001057Y-48649000D02*
X110498943Y-48649000D01*
D40*
X95550000Y-56625000D02*
X96360000Y-56625000D01*
X98750000Y-52750000D02*
X99750000Y-51750000D01*
D43*
X88825000Y-28000000D02*
X87350000Y-28000000D01*
D40*
X102860000Y-54750000D02*
X102500000Y-54390000D01*
D43*
X105975000Y-27975000D02*
X106000000Y-28000000D01*
X87175000Y-54625000D02*
X88325000Y-54625000D01*
D41*
X109572191Y-49077866D02*
X110001057Y-48649000D01*
D42*
X83750000Y-47750000D02*
X81564500Y-47750000D01*
D40*
X90075000Y-52375000D02*
X90075000Y-52475000D01*
X99125000Y-56735000D02*
X99015000Y-56625000D01*
X93415000Y-35990000D02*
X93425000Y-36000000D01*
X110000000Y-51625000D02*
X110000000Y-50850000D01*
D43*
X110625000Y-27975000D02*
X110600000Y-28000000D01*
D40*
X108150000Y-40100000D02*
X108150000Y-39272500D01*
X94075000Y-38500000D02*
X95687499Y-38500000D01*
X101150000Y-39775000D02*
X101150000Y-38997500D01*
X102425000Y-40125000D02*
X102425000Y-39317500D01*
D41*
X110174999Y-50825000D02*
X109975000Y-50825000D01*
D40*
X95687499Y-38500000D02*
X96125000Y-38937501D01*
X90075000Y-52375000D02*
X90075000Y-52573000D01*
X95025000Y-55725000D02*
X95025000Y-54890000D01*
X96125000Y-38937501D02*
X96125000Y-39600000D01*
X108150000Y-39272500D02*
X108137500Y-39260000D01*
X102500000Y-30650000D02*
X102500000Y-31430000D01*
X99815000Y-35915000D02*
X99875000Y-35975000D01*
X110200000Y-60250000D02*
X109415000Y-60250000D01*
X98750000Y-52750000D02*
X99750000Y-53750000D01*
X111850000Y-31750000D02*
X111055000Y-31750000D01*
X100125000Y-38987500D02*
X100137500Y-38975000D01*
X110000000Y-50850000D02*
X109975000Y-50825000D01*
X102425000Y-39317500D02*
X102387500Y-39280000D01*
X99815000Y-34200000D02*
X99815000Y-35915000D01*
X101150000Y-38997500D02*
X101137500Y-38985000D01*
D41*
X102500000Y-49075000D02*
X102500000Y-49550000D01*
X111000000Y-49150057D02*
X111000000Y-49999999D01*
X102500000Y-49550000D02*
X102300000Y-49750000D01*
D43*
X81175000Y-28000000D02*
X82750000Y-28000000D01*
D41*
X90300000Y-52600000D02*
X90075000Y-52375000D01*
D42*
X84000000Y-39000000D02*
X84000000Y-38165000D01*
D41*
X91625000Y-52600000D02*
X91625000Y-54235000D01*
D40*
X110000000Y-51625000D02*
X109874000Y-51751000D01*
X92250000Y-53610000D02*
X91625000Y-54235000D01*
X98750000Y-52750000D02*
X97750000Y-53750000D01*
X103250000Y-54750000D02*
X102860000Y-54750000D01*
X99125000Y-58550000D02*
X99125000Y-59225000D01*
X90700000Y-45775000D02*
X90700000Y-47050000D01*
X103475000Y-35575000D02*
X104242500Y-35575000D01*
D42*
X101400000Y-44800000D02*
X101400000Y-45640000D01*
D41*
X109572191Y-49465309D02*
X109572191Y-49077866D01*
D43*
X112075000Y-27975000D02*
X110625000Y-27975000D01*
D40*
X100585000Y-45665000D02*
X100250000Y-46000000D01*
X88500000Y-31750000D02*
X87665000Y-31750000D01*
D41*
X110498943Y-48649000D02*
X111000000Y-49150057D01*
D43*
X88325000Y-54625000D02*
X88375000Y-54575000D01*
D40*
X90750000Y-30675000D02*
X90750000Y-31430000D01*
X99125000Y-59225000D02*
X99025000Y-59325000D01*
D43*
X88350000Y-54600000D02*
X88375000Y-54575000D01*
D40*
X105070000Y-50850000D02*
X105150000Y-50930000D01*
X99125000Y-57400000D02*
X99125000Y-56735000D01*
X105025000Y-41550000D02*
X105817500Y-41550000D01*
X88375000Y-54175000D02*
X88375000Y-54575000D01*
X90700000Y-47050000D02*
X90675000Y-47075000D01*
X104242500Y-35575000D02*
X104247500Y-35570000D01*
D42*
X84000000Y-38165000D02*
X83400500Y-38165000D01*
D40*
X96260000Y-59225000D02*
X96360000Y-59325000D01*
X95125000Y-59225000D02*
X96260000Y-59225000D01*
D41*
X111000000Y-49999999D02*
X110174999Y-50825000D01*
D42*
X83400500Y-38165000D02*
X81500000Y-40065500D01*
D40*
X101425000Y-45665000D02*
X100585000Y-45665000D01*
X96200000Y-58525000D02*
X96200000Y-59165000D01*
D42*
X96575000Y-43475000D02*
X97474000Y-43475000D01*
D41*
X98250000Y-44925000D02*
X96575000Y-44925000D01*
D40*
X104082500Y-39280000D02*
X104112500Y-39250000D01*
X93415000Y-34200000D02*
X93415000Y-35990000D01*
X100300000Y-57525000D02*
X100300000Y-58315000D01*
D43*
X104400000Y-27975000D02*
X105975000Y-27975000D01*
D40*
X96200000Y-59165000D02*
X96360000Y-59325000D01*
D41*
X91625000Y-52600000D02*
X90300000Y-52600000D01*
D42*
X81565500Y-40000000D02*
X81500000Y-40065500D01*
X101400000Y-45640000D02*
X101425000Y-45665000D01*
D40*
X104350000Y-50626000D02*
X104574000Y-50850000D01*
X92250000Y-53400000D02*
X92250000Y-53610000D01*
X90075000Y-52475000D02*
X88375000Y-54175000D01*
X102387500Y-39280000D02*
X104082500Y-39280000D01*
D42*
X84000000Y-40000000D02*
X81565500Y-40000000D01*
X81564500Y-47750000D02*
X81500000Y-47685500D01*
D40*
X100300000Y-58315000D02*
X100325000Y-58340000D01*
X97750000Y-51750000D02*
X98750000Y-52750000D01*
D42*
X97474000Y-43475000D02*
X97474000Y-43500000D01*
D40*
%TO.N,Net-(C1-Pad1)*%
X91625000Y-54875000D02*
X92850000Y-54875000D01*
X90075000Y-54575000D02*
X90375000Y-54875000D01*
X92850000Y-54875000D02*
X92875000Y-54900000D01*
X90375000Y-54875000D02*
X91625000Y-54875000D01*
%TO.N,Net-(U1-XTAL_N)*%
X88375000Y-52375000D02*
X88375000Y-51625000D01*
D41*
X96300000Y-53000000D02*
X92824870Y-53000000D01*
D40*
X88375000Y-51625000D02*
X89250000Y-50750000D01*
D41*
X92824870Y-53000000D02*
X91784870Y-51960000D01*
D40*
X89250000Y-50750000D02*
X91000000Y-50750000D01*
X91000000Y-50750000D02*
X91625000Y-51375000D01*
D41*
X91784870Y-51960000D02*
X91625000Y-51960000D01*
D40*
X91625000Y-51375000D02*
X91625000Y-51960000D01*
D41*
%TO.N,/MPU_EN*%
X104131331Y-60118669D02*
X104000000Y-60250000D01*
D40*
X82750000Y-30500000D02*
X87350000Y-30500000D01*
D41*
X100000000Y-55615798D02*
X103063533Y-58679331D01*
X87025000Y-34225000D02*
X87025000Y-31750000D01*
D40*
X82750000Y-30500000D02*
X83000000Y-30750000D01*
D41*
X85000000Y-36500000D02*
X85000000Y-36250000D01*
D40*
X87025000Y-30825000D02*
X87350000Y-30500000D01*
D41*
X103779274Y-58679331D02*
X104131331Y-59031388D01*
X104131331Y-59031388D02*
X104131331Y-60118669D01*
D40*
X87025000Y-31750000D02*
X87025000Y-30825000D01*
D41*
X87025000Y-31750000D02*
X83000000Y-31750000D01*
D40*
X83000000Y-30750000D02*
X83000000Y-31750000D01*
D41*
X103063533Y-58679331D02*
X103779274Y-58679331D01*
X100000000Y-55200000D02*
X100000000Y-55615798D01*
X85000000Y-36250000D02*
X87025000Y-34225000D01*
D40*
%TO.N,/INT_GYRO_GPIO9*%
X106390000Y-31750000D02*
X106390000Y-30890000D01*
D41*
X102250000Y-51400000D02*
X102150000Y-51500000D01*
X109250000Y-42000000D02*
X110415000Y-40835000D01*
X102150000Y-51500000D02*
X101200000Y-51500000D01*
D40*
X106000000Y-30500000D02*
X110600000Y-30500000D01*
X106390000Y-30890000D02*
X106000000Y-30500000D01*
D41*
X106390000Y-31750000D02*
X110415000Y-31750000D01*
D40*
X110415000Y-31750000D02*
X110415000Y-30685000D01*
X110415000Y-30685000D02*
X110600000Y-30500000D01*
D41*
X110415000Y-40835000D02*
X110415000Y-31750000D01*
D43*
%TO.N,+3.3V*%
X94652996Y-54250000D02*
X94693996Y-54209000D01*
D42*
X98375000Y-58265000D02*
X98375000Y-59315000D01*
X102500000Y-53750000D02*
X103450000Y-53750000D01*
X101630001Y-49075000D02*
X100551000Y-50154001D01*
D43*
X100325000Y-59300000D02*
X100325000Y-59825000D01*
D42*
X82360000Y-32750000D02*
X82360000Y-31750000D01*
X101860000Y-49075000D02*
X101860000Y-48768881D01*
X98375000Y-59315000D02*
X98385000Y-59325000D01*
D43*
X108250000Y-35682500D02*
X108137500Y-35570000D01*
D42*
X105750000Y-33182500D02*
X108137500Y-35570000D01*
X100325000Y-59300000D02*
X99674000Y-59951000D01*
D43*
X105750000Y-47500000D02*
X105000000Y-48250000D01*
D40*
X105380582Y-51570000D02*
X105150000Y-51570000D01*
D43*
X110016000Y-50144000D02*
X109975000Y-50144000D01*
D40*
X95025000Y-54250000D02*
X96050000Y-54250000D01*
D43*
X94000000Y-58500000D02*
X94235000Y-58265000D01*
D40*
X102250000Y-53500000D02*
X101200000Y-53500000D01*
D42*
X98684708Y-59951000D02*
X98385000Y-59651292D01*
X101860000Y-49075000D02*
X101630001Y-49075000D01*
X107180000Y-54750000D02*
X108180000Y-53750000D01*
X100551000Y-50154001D02*
X100551000Y-50300000D01*
D40*
X104845000Y-51875000D02*
X105150000Y-51570000D01*
X96050000Y-54250000D02*
X96300000Y-54500000D01*
D42*
X108137500Y-38300000D02*
X108137500Y-37612500D01*
D43*
X100325000Y-59825000D02*
X100500000Y-60000000D01*
D42*
X108137500Y-35570000D02*
X108137500Y-37387500D01*
D40*
X104325000Y-51875000D02*
X104845000Y-51875000D01*
D42*
X101860000Y-48768881D02*
X102239722Y-48389159D01*
X98375000Y-59340000D02*
X98385000Y-59350000D01*
X108137500Y-37612500D02*
X108250000Y-37500000D01*
D43*
X106250000Y-47500000D02*
X105750000Y-47500000D01*
D42*
X106750000Y-54750000D02*
X107180000Y-54750000D01*
D43*
X110250000Y-49250000D02*
X110250000Y-49910000D01*
X94250000Y-54250000D02*
X94652996Y-54250000D01*
D42*
X108137500Y-38300000D02*
X106387500Y-38300000D01*
X98385000Y-59325000D02*
X98385000Y-59651292D01*
D43*
X110250000Y-49910000D02*
X110016000Y-50144000D01*
X94693996Y-54209000D02*
X95025000Y-54209000D01*
D40*
X102500000Y-53750000D02*
X102250000Y-53500000D01*
D42*
X105750000Y-31750000D02*
X105750000Y-33182500D01*
X99674000Y-59951000D02*
X98684708Y-59951000D01*
X108137500Y-37387500D02*
X108250000Y-37500000D01*
D43*
X105000000Y-48250000D02*
X105000000Y-48294000D01*
X94235000Y-58265000D02*
X95125000Y-58265000D01*
D40*
X96050000Y-54250000D02*
X96300000Y-54000000D01*
D42*
%TO.N,/3V3_RF*%
X98375000Y-56625000D02*
X98375000Y-56600000D01*
X97526000Y-55751000D02*
X97526000Y-55226000D01*
X98375000Y-56625000D02*
X97974000Y-56224000D01*
X98375000Y-57625000D02*
X98375000Y-56625000D01*
X98375000Y-56600000D02*
X97526000Y-55751000D01*
X97974000Y-56224000D02*
X97974000Y-55200000D01*
D40*
%TO.N,/VCC_SPI*%
X100000000Y-49750000D02*
X100000000Y-50300000D01*
X100250000Y-46640000D02*
X100250000Y-47000000D01*
X101425000Y-48250000D02*
X101425000Y-48325000D01*
X100265000Y-46625000D02*
X100250000Y-46640000D01*
X101425000Y-46625000D02*
X101425000Y-48250000D01*
X101425000Y-46625000D02*
X100265000Y-46625000D01*
X101425000Y-48175000D02*
X101425000Y-48250000D01*
X100250000Y-47000000D02*
X101425000Y-48175000D01*
X100250000Y-46640000D02*
X99290000Y-46640000D01*
X101425000Y-48325000D02*
X100000000Y-49750000D01*
X99290000Y-46640000D02*
X99000000Y-46350000D01*
D43*
%TO.N,VBUS*%
X97478100Y-38438500D02*
X96576001Y-38438500D01*
X99015000Y-34200000D02*
X99015000Y-36500000D01*
X96125000Y-37987499D02*
X96125000Y-37325000D01*
X97958300Y-37958300D02*
X97478100Y-38438500D01*
X99015000Y-36500000D02*
X99015000Y-36901600D01*
D42*
X98515000Y-36000000D02*
X99015000Y-36500000D01*
X94215000Y-35665000D02*
X94500000Y-35950000D01*
X94215000Y-34200000D02*
X94215000Y-35665000D01*
D43*
X99015000Y-36901600D02*
X97958300Y-37958300D01*
X96576001Y-38438500D02*
X96125000Y-37987499D01*
D42*
X98000000Y-36000000D02*
X98515000Y-36000000D01*
D40*
%TO.N,/VBUS_FILT*%
X105250000Y-39487678D02*
X105250000Y-39000000D01*
D42*
X102362500Y-38345000D02*
X102387500Y-38320000D01*
X81500500Y-37525000D02*
X81500000Y-37525500D01*
X100937500Y-37310000D02*
X100937500Y-38145000D01*
X100937500Y-38145000D02*
X101137500Y-38345000D01*
X102387500Y-38320000D02*
X102387500Y-37137500D01*
D40*
X104550000Y-38300000D02*
X104112500Y-38300000D01*
D42*
X89981985Y-42018015D02*
X90700000Y-42736030D01*
D40*
X105250000Y-39000000D02*
X104550000Y-38300000D01*
D42*
X90700000Y-42736030D02*
X90700000Y-43500000D01*
X102387500Y-37137500D02*
X102250000Y-37000000D01*
X87975000Y-37525000D02*
X84000000Y-37525000D01*
D40*
X104112500Y-40200000D02*
X104537678Y-40200000D01*
D42*
X102387500Y-38320000D02*
X104092500Y-38320000D01*
X104092500Y-38320000D02*
X104112500Y-38300000D01*
X88250000Y-37250000D02*
X87975000Y-37525000D01*
D40*
X104537678Y-40200000D02*
X105250000Y-39487678D01*
D42*
X101137500Y-38345000D02*
X102362500Y-38345000D01*
X84000000Y-37525000D02*
X81500500Y-37525000D01*
D40*
%TO.N,Net-(U4-BP)*%
X106457500Y-40270000D02*
X106457500Y-41550000D01*
X106387500Y-40200000D02*
X106457500Y-40270000D01*
D44*
%TO.N,Net-(U1-LNA_IN)*%
X97000000Y-56625000D02*
X97000000Y-57600000D01*
X97000000Y-55200000D02*
X97000000Y-56625000D01*
D41*
%TO.N,/LED_A*%
X103825001Y-57250000D02*
X105250000Y-57250000D01*
X101200000Y-54624999D02*
X103825001Y-57250000D01*
X101200000Y-54500000D02*
X101200000Y-54624999D01*
D40*
%TO.N,Net-(D1-K)*%
X108755000Y-57250000D02*
X106825000Y-57250000D01*
D43*
%TO.N,Net-(D2-K)*%
X106562500Y-35570000D02*
X104928500Y-35570000D01*
D40*
%TO.N,Net-(D3-K)*%
X108775000Y-60250000D02*
X106825000Y-60250000D01*
D41*
%TO.N,/LED_B*%
X105250000Y-58750000D02*
X105250000Y-60250000D01*
X104750000Y-58250000D02*
X105250000Y-58750000D01*
X104250000Y-58250000D02*
X104750000Y-58250000D01*
X101200000Y-55200000D02*
X104250000Y-58250000D01*
X100500000Y-55200000D02*
X101200000Y-55200000D01*
%TO.N,Net-(J1-CC2)*%
X94865000Y-34200000D02*
X94865000Y-33115000D01*
X93820000Y-32070000D02*
X90750000Y-32070000D01*
X94865000Y-33115000D02*
X93820000Y-32070000D01*
%TO.N,Net-(J1-CC1)*%
X102500000Y-32070000D02*
X99386176Y-32070000D01*
X99386176Y-32070000D02*
X97865000Y-33591176D01*
X97865000Y-33591176D02*
X97865000Y-34200000D01*
D40*
%TO.N,Net-(J2-Pin_2)*%
X83145500Y-43500000D02*
X89750000Y-43500000D01*
X81500000Y-45145500D02*
X83145500Y-43500000D01*
%TO.N,Net-(J2-Pin_3)*%
X82688485Y-41417015D02*
X90230928Y-41417015D01*
X91650000Y-42836087D02*
X91650000Y-43500000D01*
X81500000Y-42605500D02*
X82688485Y-41417015D01*
X90230928Y-41417015D02*
X91650000Y-42836087D01*
D41*
%TO.N,Net-(U1-XTAL_P)*%
X92875000Y-54260000D02*
X93635000Y-53500000D01*
X93635000Y-53500000D02*
X96300000Y-53500000D01*
%TO.N,/UART_RX*%
X89750000Y-45775000D02*
X89750000Y-47750000D01*
%TO.N,Net-(U1-U0TXD)*%
X93860000Y-52500000D02*
X89750000Y-48390000D01*
X96300000Y-52500000D02*
X93860000Y-52500000D01*
%TO.N,/UART_TX*%
X91650000Y-45775000D02*
X91650000Y-47760000D01*
%TO.N,Net-(U1-U0RXD)*%
X94500000Y-52000000D02*
X96300000Y-52000000D01*
X91650000Y-49150000D02*
X94500000Y-52000000D01*
X91650000Y-48400000D02*
X91650000Y-49150000D01*
%TO.N,/FSPIQ*%
X103064231Y-59280331D02*
X99500000Y-55716100D01*
X109250000Y-47000000D02*
X107932900Y-47000000D01*
X99500000Y-55716100D02*
X99500000Y-55200000D01*
X103530331Y-59280331D02*
X103064231Y-59280331D01*
%TO.N,/FSPI_NCS_2*%
X101200000Y-52000000D02*
X102875000Y-52000000D01*
D40*
X108820000Y-53519418D02*
X108820000Y-53750000D01*
D41*
X102875000Y-52000000D02*
X103700000Y-51175000D01*
%TO.N,/SPI_NCS*%
X99250000Y-42500000D02*
X99000000Y-42750000D01*
X100000000Y-42500000D02*
X99250000Y-42500000D01*
X98500000Y-50300000D02*
X98500000Y-48000000D01*
X98500000Y-48000000D02*
X98600000Y-47900000D01*
X99000000Y-42750000D02*
X99000000Y-43500000D01*
%TO.N,/SPI_CLK*%
X98000000Y-46350000D02*
X98000000Y-50300000D01*
%TO.N,/SPI_DO*%
X97000000Y-50000000D02*
X97000000Y-50300000D01*
X96351000Y-41649000D02*
X95675000Y-42325000D01*
X98500000Y-42432900D02*
X97716100Y-41649000D01*
X95675000Y-48675000D02*
X97000000Y-50000000D01*
X95675000Y-42325000D02*
X95675000Y-48675000D01*
X97716100Y-41649000D02*
X96351000Y-41649000D01*
X98500000Y-43500000D02*
X98500000Y-42432900D01*
%TO.N,/SPI_NWP*%
X99500000Y-48500000D02*
X99000000Y-49000000D01*
X98000000Y-43500000D02*
X98000000Y-42500000D01*
X99000000Y-49000000D02*
X99000000Y-50300000D01*
X97750000Y-42250000D02*
X96750000Y-42250000D01*
X98000000Y-42500000D02*
X97750000Y-42250000D01*
%TO.N,/INT_ACC*%
X111500000Y-48500000D02*
X111500000Y-54000000D01*
X101901000Y-54285202D02*
X101615798Y-54000000D01*
X110750000Y-47750000D02*
X111500000Y-48500000D01*
X111500000Y-54000000D02*
X109500000Y-56000000D01*
X101901000Y-54651000D02*
X101901000Y-54285202D01*
X109500000Y-56000000D02*
X103250000Y-56000000D01*
X103250000Y-56000000D02*
X101901000Y-54651000D01*
X101615798Y-54000000D02*
X101200000Y-54000000D01*
%TO.N,/USB_D_P*%
X95175000Y-39600000D02*
X95175000Y-40863603D01*
X93775000Y-42263603D02*
X93775000Y-50593198D01*
X95175000Y-40863603D02*
X93775000Y-42263603D01*
X95699999Y-51500000D02*
X96300000Y-51500000D01*
X95674999Y-51475000D02*
X95699999Y-51500000D01*
X93775000Y-50593198D02*
X94656802Y-51475000D01*
X94656802Y-51475000D02*
X95674999Y-51475000D01*
%TO.N,/SPI_DI*%
X97500000Y-46350000D02*
X97500000Y-50300000D01*
%TO.N,/USB_D_N*%
X95674999Y-51025000D02*
X95699999Y-51000000D01*
X94843198Y-51025000D02*
X95674999Y-51025000D01*
X94225000Y-50406802D02*
X94843198Y-51025000D01*
X96726000Y-40303468D02*
X96465968Y-40563500D01*
X97075000Y-39600000D02*
X96726000Y-39949000D01*
X96111500Y-40563500D02*
X94225000Y-42450000D01*
X95699999Y-51000000D02*
X96300000Y-51000000D01*
X94225000Y-42450000D02*
X94225000Y-50406802D01*
X96465968Y-40563500D02*
X96111500Y-40563500D01*
X96726000Y-39949000D02*
X96726000Y-40303468D01*
%TO.N,/SPI_NHLD*%
X98500000Y-46815798D02*
X99583202Y-47899000D01*
X99748943Y-47899000D02*
X100101000Y-48251057D01*
X99500000Y-49349943D02*
X99500000Y-50300000D01*
X100101000Y-48251057D02*
X100101000Y-48748943D01*
X100101000Y-48748943D02*
X99500000Y-49349943D01*
X99583202Y-47899000D02*
X99748943Y-47899000D01*
X98500000Y-46350000D02*
X98500000Y-46815798D01*
%TO.N,/FSPI_NCS*%
X101200000Y-51000000D02*
X101401000Y-50799000D01*
X101401000Y-50799000D02*
X102658957Y-50799000D01*
X102658957Y-50799000D02*
X103832957Y-49625000D01*
%TO.N,/FSPID*%
X105975000Y-52500000D02*
X101200000Y-52500000D01*
X106225000Y-52250000D02*
X105975000Y-52500000D01*
D44*
%TO.N,/USB_IN_P*%
X96500000Y-33250000D02*
X96236962Y-33250000D01*
X95865000Y-36311318D02*
X95175000Y-37001318D01*
X96236962Y-33250000D02*
X95865000Y-33621962D01*
X95175000Y-37001318D02*
X95175000Y-37325000D01*
X96865000Y-33615000D02*
X96500000Y-33250000D01*
X95865000Y-34200000D02*
X95865000Y-36311318D01*
X95865000Y-33621962D02*
X95865000Y-34200000D01*
X96865000Y-34200000D02*
X96865000Y-33615000D01*
%TO.N,/USB_IN_N*%
X96365000Y-36291318D02*
X97075000Y-37001318D01*
X97365000Y-34200000D02*
X97365000Y-34778038D01*
X96365000Y-34200000D02*
X96365000Y-35000000D01*
X97088806Y-35054232D02*
X96419232Y-35054232D01*
X96419232Y-35054232D02*
X96365000Y-35000000D01*
X97075000Y-37001318D02*
X97075000Y-37325000D01*
X96365000Y-35000000D02*
X96365000Y-36291318D01*
X97365000Y-34778038D02*
X97088806Y-35054232D01*
D41*
%TO.N,Net-(U1-MTCK)*%
X104600000Y-53750000D02*
X106085000Y-53750000D01*
X101200000Y-53000000D02*
X103850000Y-53000000D01*
X103850000Y-53000000D02*
X104600000Y-53750000D01*
D44*
%TO.N,Net-(U7-SIG_IN)*%
X96274999Y-60250000D02*
X93000000Y-60250000D01*
X97000000Y-59524999D02*
X96274999Y-60250000D01*
X93000000Y-60250000D02*
X91900000Y-61350000D01*
X97000000Y-58240000D02*
X97000000Y-59325000D01*
X97000000Y-59325000D02*
X97000000Y-59524999D01*
X91900000Y-61350000D02*
X91900000Y-62250000D01*
%TD*%
M02*
